# WaveFront *.obj file (generated by Autodesk ATF)

mtllib MapEu.Russia.Belarus.mtl

g Solid6

v -706.557159 0.000000 492.444153
v -706.557159 10.000000 492.444153
v -701.224289 0.000000 483.038445
v -701.224289 10.000000 483.038445
v -701.144485 0.000000 459.598045
v -701.144485 10.000000 459.598045
v -698.544846 0.000000 499.587860
v -698.544846 10.000000 499.587860
v -694.041214 0.000000 470.121422
v -694.041214 10.000000 470.121422
v -692.165375 0.000000 483.038445
v -692.165375 10.000000 483.038445
v -691.945724 0.000000 453.388863
v -691.945724 10.000000 453.388863
v -690.876541 0.000000 500.605888
v -690.876541 10.000000 500.605888
v -689.906769 0.000000 438.030319
v -689.906769 10.000000 438.030319
v -689.326019 0.000000 478.030624
v -689.326019 10.000000 478.030624
v -684.820557 0.000000 506.005402
v -684.820557 10.000000 506.005402
v -672.908783 0.000000 515.958290
v -672.908783 10.000000 515.958290
v -667.492828 0.000000 528.721313
v -667.492828 10.000000 528.721313
v -665.818634 0.000000 536.298027
v -665.818634 10.000000 536.298027
v -654.157867 0.000000 539.794693
v -654.157867 10.000000 539.794693
v -645.347977 0.000000 534.542580
v -645.347977 10.000000 534.542580
v -642.789078 0.000000 431.765747
v -642.789078 10.000000 431.765747
v -642.542496 0.000000 427.564430
v -642.542496 10.000000 427.564430
v -642.406998 0.000000 429.077148
v -642.406998 10.000000 429.077148
v -640.637283 0.000000 449.996071
v -640.637283 10.000000 449.996071
v -640.347748 0.000000 450.820503
v -640.347748 10.000000 450.820503
v -639.734421 0.000000 451.442833
v -639.734421 10.000000 451.442833
v -638.914261 0.000000 451.744232
v -638.914261 10.000000 451.744232
v -638.793678 0.000000 540.386391
v -638.793678 10.000000 540.386391
v -634.751625 0.000000 452.296867
v -634.751625 10.000000 452.296867
v -632.293549 0.000000 537.628059
v -632.293549 10.000000 537.628059
v -630.752716 0.000000 520.866241
v -630.752716 10.000000 520.866241
v -629.072800 0.000000 526.180725
v -629.072800 10.000000 526.180725
v -628.924904 0.000000 513.395348
v -628.924904 10.000000 513.395348
v -628.568954 0.000000 493.185196
v -628.568954 10.000000 493.185196
v -627.844543 0.000000 513.053856
v -627.844543 10.000000 513.053856
v -627.290955 0.000000 501.637115
v -627.290955 10.000000 501.637115
v -627.073174 0.000000 512.600021
v -627.073174 10.000000 512.600021
v -626.576958 0.000000 511.855164
v -626.576958 10.000000 511.855164
v -626.455345 0.000000 510.968475
v -626.455345 10.000000 510.968475
v -626.073914 0.000000 539.925117
v -626.073914 10.000000 539.925117
v -625.721130 0.000000 459.421768
v -625.721130 10.000000 459.421768
v -625.036697 0.000000 469.744568
v -625.036697 10.000000 469.744568
v -624.790421 0.000000 491.467247
v -624.790421 10.000000 491.467247
v -623.074989 0.000000 528.225212
v -623.074989 10.000000 528.225212
v -622.519608 0.000000 535.938683
v -622.519608 10.000000 535.938683
v -621.556435 0.000000 531.565170
v -621.556435 10.000000 531.565170
vt 0.000000 0.000000 0.000000
vt 0.271562 0.000000 0.000000
vt 0.271562 1.000000 0.000000
vt 0.000000 1.000000 0.000000
vt 0.000000 0.000000 0.000000
vt 1.835689 0.000000 0.000000
vt 1.835689 1.000000 0.000000
vt 0.000000 1.000000 0.000000
vt 0.000000 -0.364055 0.000000
vt 0.000000 -0.452143 0.000000
vt 0.000000 -0.540231 0.000000
vt 0.000000 -0.628319 0.000000
vt 1.000000 -0.628319 0.000000
vt 1.000000 -0.540231 0.000000
vt 1.000000 -0.452143 0.000000
vt 1.000000 -0.364055 0.000000
vt 0.000000 0.000000 0.000000
vt 0.419916 0.000000 0.000000
vt 0.419916 1.000000 0.000000
vt 0.000000 1.000000 0.000000
vt 0.000000 0.000000 0.000000
vt 1.150278 0.000000 0.000000
vt 1.150278 1.000000 0.000000
vt 0.000000 1.000000 0.000000
vt 0.000000 0.000000 0.000000
vt 1.034547 0.000000 0.000000
vt 1.034547 1.000000 0.000000
vt 0.000000 1.000000 0.000000
vt 0.000000 0.000000 0.000000
vt 2.172408 0.000000 0.000000
vt 2.172408 1.000000 0.000000
vt 0.000000 1.000000 0.000000
vt 0.000000 0.000000 0.000000
vt 0.415078 0.000000 0.000000
vt 0.415078 1.000000 0.000000
vt 0.000000 1.000000 0.000000
vt 0.000000 0.000000 0.000000
vt 0.854797 0.000000 0.000000
vt 0.854797 1.000000 0.000000
vt 0.000000 1.000000 0.000000
vt 0.000000 0.000000 0.000000
vt 0.936871 0.000000 0.000000
vt 0.936871 1.000000 0.000000
vt 0.000000 1.000000 0.000000
vt -0.000000 0.000000 0.000000
vt -0.000000 0.090263 0.000000
vt -0.000000 0.180527 0.000000
vt -0.000000 0.270790 0.000000
vt -1.000000 0.270790 0.000000
vt -1.000000 0.180527 0.000000
vt -1.000000 0.090263 0.000000
vt -1.000000 0.000000 0.000000
vt 0.000000 0.000000 0.000000
vt 0.113302 0.000000 0.000000
vt 0.113302 1.000000 0.000000
vt 0.000000 1.000000 0.000000
vt 0.000000 0.000000 0.000000
vt 0.769122 0.000000 0.000000
vt 0.769122 1.000000 0.000000
vt 0.000000 1.000000 0.000000
vt 0.000000 0.000000 0.000000
vt 0.557368 0.000000 0.000000
vt 0.557368 1.000000 0.000000
vt 0.000000 1.000000 0.000000
vt 0.000000 0.000000 0.000000
vt 0.633668 0.000000 0.000000
vt 0.633668 1.000000 0.000000
vt 0.000000 1.000000 0.000000
vt 0.000000 0.000000 0.000000
vt 0.366897 0.000000 0.000000
vt 0.366897 1.000000 0.000000
vt 0.000000 1.000000 0.000000
vt 0.000000 0.000000 0.000000
vt 0.447831 0.000000 0.000000
vt 0.447831 1.000000 0.000000
vt 0.000000 1.000000 0.000000
vt 0.000000 0.000000 0.000000
vt 0.534085 0.000000 0.000000
vt 0.534085 1.000000 0.000000
vt 0.000000 1.000000 0.000000
vt 0.000000 0.000000 0.000000
vt 0.663026 0.000000 0.000000
vt 0.663026 1.000000 0.000000
vt 0.000000 1.000000 0.000000
vt 0.000000 0.000000 0.000000
vt 0.706116 0.000000 0.000000
vt 0.706116 1.000000 0.000000
vt 0.000000 1.000000 0.000000
vt 0.000000 0.000000 0.000000
vt 0.878120 0.000000 0.000000
vt 0.878120 1.000000 0.000000
vt 0.000000 1.000000 0.000000
vt 0.000000 0.000000 0.000000
vt 1.025660 0.000000 0.000000
vt 1.025660 1.000000 0.000000
vt 0.000000 1.000000 0.000000
vt 0.000000 0.000000 0.000000
vt 1.217376 0.000000 0.000000
vt 1.217376 1.000000 0.000000
vt 0.000000 1.000000 0.000000
vt 0.000000 0.000000 0.000000
vt 0.775947 0.000000 0.000000
vt 0.775947 1.000000 0.000000
vt 0.000000 1.000000 0.000000
vt 0.000000 0.000000 0.000000
vt 1.386460 0.000000 0.000000
vt 1.386460 1.000000 0.000000
vt 0.000000 1.000000 0.000000
vt 0.000000 0.000000 0.000000
vt 1.552258 0.000000 0.000000
vt 1.552258 1.000000 0.000000
vt 0.000000 1.000000 0.000000
vt 0.000000 0.000000 0.000000
vt 0.811358 0.000000 0.000000
vt 0.811358 1.000000 0.000000
vt 0.000000 1.000000 0.000000
vt 0.000000 0.000000 0.000000
vt 0.773555 0.000000 0.000000
vt 0.773555 1.000000 0.000000
vt 0.000000 1.000000 0.000000
vt 0.000000 0.000000 0.000000
vt 1.073451 0.000000 0.000000
vt 1.073451 1.000000 0.000000
vt 0.000000 1.000000 0.000000
vt 0.000000 0.000000 0.000000
vt 1.081234 0.000000 0.000000
vt 1.081234 1.000000 0.000000
vt 0.000000 1.000000 0.000000
vt 0.000000 0.000000 0.000000
vt 0.905890 0.000000 0.000000
vt 0.905890 1.000000 0.000000
vt 0.000000 1.000000 0.000000
vt 0.000000 0.000000 0.000000
vt 0.575676 0.000000 0.000000
vt 0.575676 1.000000 0.000000
vt 0.000000 1.000000 0.000000
vt 0.000000 0.000000 0.000000
vt 0.920806 0.000000 0.000000
vt 0.920806 1.000000 0.000000
vt 0.000000 1.000000 0.000000
vt 0.000000 0.000000 0.000000
vt 1.269638 0.000000 0.000000
vt 1.269638 1.000000 0.000000
vt 0.000000 1.000000 0.000000
vt 0.000000 0.000000 0.000000
vt 1.109823 0.000000 0.000000
vt 1.109823 1.000000 0.000000
vt 0.000000 1.000000 0.000000
vt 0.000000 0.000000 0.000000
vt 1.549332 0.000000 0.000000
vt 1.549332 1.000000 0.000000
vt 0.000000 1.000000 0.000000
vt 0.000000 0.000000 0.000000
vt 4.850682 0.000000 0.000000
vt 4.850682 1.000000 0.000000
vt 0.000000 1.000000 0.000000
vt 0.000000 0.000000 0.000000
vt 0.151876 0.000000 0.000000
vt 0.151876 1.000000 0.000000
vt 0.000000 1.000000 0.000000
vt -5.489827 2.164979 0.000000
vt -5.641098 2.151433 0.000000
vt -4.594508 -2.584997 0.000000
vt -3.058652 -2.788896 0.000000
vt -2.437737 -3.708771 0.000000
vt -1.385399 -2.998443 0.000000
vt -0.594479 -2.526925 0.000000
vt -0.093696 -2.810859 0.000000
vt -0.093696 -3.716749 0.000000
vt 0.846875 -4.250034 0.000000
vt 1.561246 -3.448803 0.000000
vt 1.663049 -2.681976 0.000000
vt 2.203000 -2.076373 0.000000
vt 3.198289 -0.885196 0.000000
vt 4.474591 -0.343603 0.000000
vt 5.232261 -0.176183 0.000000
vt 5.581929 0.989895 0.000000
vt 5.056717 1.870878 0.000000
vt 5.641098 2.526313 0.000000
vt 5.365267 3.176326 0.000000
vt 5.594973 3.798289 0.000000
vt 5.196329 4.153718 0.000000
vt 4.758978 4.250034 0.000000
vt 4.424982 4.098179 0.000000
vt 4.220531 3.498399 0.000000
vt 3.689082 3.330408 0.000000
vt 2.941994 3.513190 0.000000
vt 2.907845 3.621224 0.000000
vt 2.862460 3.698362 0.000000
vt 2.787975 3.747981 0.000000
vt 2.699306 3.760146 0.000000
vt 1.766170 3.676582 0.000000
vt 0.920981 3.548782 0.000000
vt 0.749184 3.926639 0.000000
vt -1.423085 3.902008 0.000000
vt -2.455365 3.833566 0.000000
vt -3.167853 2.930516 0.000000
vt -3.223116 2.514252 0.000000
vt -3.253259 2.432238 0.000000
vt -3.315490 2.370902 0.000000
vt -3.397933 2.341952 0.000000
vt -5.220966 2.126771 0.000000
vt 5.641098 2.151433 0.000000
vt 5.489827 2.164979 0.000000
vt 5.220966 2.126771 0.000000
vt 3.397933 2.341952 0.000000
vt 3.315490 2.370902 0.000000
vt 3.253259 2.432238 0.000000
vt 3.223116 2.514252 0.000000
vt 3.167853 2.930516 0.000000
vt 2.455365 3.833566 0.000000
vt 1.423085 3.902008 0.000000
vt -0.749184 3.926639 0.000000
vt -0.920981 3.548782 0.000000
vt -1.766170 3.676582 0.000000
vt -2.699306 3.760146 0.000000
vt -2.787975 3.747981 0.000000
vt -2.862460 3.698362 0.000000
vt -2.907845 3.621224 0.000000
vt -2.941994 3.513190 0.000000
vt -3.689082 3.330408 0.000000
vt -4.220531 3.498399 0.000000
vt -4.424982 4.098179 0.000000
vt -4.758978 4.250034 0.000000
vt -5.196329 4.153718 0.000000
vt -5.594973 3.798289 0.000000
vt -5.365267 3.176326 0.000000
vt -5.641098 2.526313 0.000000
vt -5.056717 1.870878 0.000000
vt -5.581929 0.989895 0.000000
vt -5.232261 -0.176183 0.000000
vt -4.474591 -0.343603 0.000000
vt -3.198289 -0.885196 0.000000
vt -2.203000 -2.076373 0.000000
vt -1.663049 -2.681976 0.000000
vt -1.561246 -3.448803 0.000000
vt -0.846875 -4.250034 0.000000
vt 0.093696 -3.716749 0.000000
vt 0.093696 -2.810859 0.000000
vt 0.594479 -2.526925 0.000000
vt 1.385399 -2.998443 0.000000
vt 2.437737 -3.708771 0.000000
vt 3.058652 -2.788896 0.000000
vt 4.594508 -2.584997 0.000000
vn 0.099005 0.000000 0.014070
vn 0.099005 0.000000 0.014070
vn 0.099005 0.000000 0.014070
vn 0.099005 0.000000 0.014070
vn 0.099311 0.000000 -0.011722
vn 0.099311 0.000000 -0.011722
vn 0.099311 0.000000 -0.011722
vn 0.099311 0.000000 -0.011722
vn 0.013160 0.000000 -0.099130
vn 0.054167 0.000000 -0.084059
vn 0.084835 0.000000 -0.052943
vn 0.099311 0.000000 -0.011722
vn 0.099311 0.000000 -0.011722
vn 0.084835 0.000000 -0.052943
vn 0.054167 0.000000 -0.084059
vn 0.013160 0.000000 -0.099130
vn 0.013160 0.000000 -0.099130
vn 0.013160 0.000000 -0.099130
vn 0.013160 0.000000 -0.099130
vn 0.013160 0.000000 -0.099130
vn 0.061940 0.000000 -0.078507
vn 0.061940 0.000000 -0.078507
vn 0.061940 0.000000 -0.078507
vn 0.061940 0.000000 -0.078507
vn 0.099781 0.000000 -0.006616
vn 0.099781 0.000000 -0.006616
vn 0.099781 0.000000 -0.006616
vn 0.099781 0.000000 -0.006616
vn 0.099994 0.000000 -0.001134
vn 0.099994 0.000000 -0.001134
vn 0.099994 0.000000 -0.001134
vn 0.099994 0.000000 -0.001134
vn 0.041389 0.000000 0.091033
vn 0.041389 0.000000 0.091033
vn 0.041389 0.000000 0.091033
vn 0.041389 0.000000 0.091033
vn 0.098876 0.000000 -0.014951
vn 0.098876 0.000000 -0.014951
vn 0.098876 0.000000 -0.014951
vn 0.098876 0.000000 -0.014951
vn 0.099601 0.000000 -0.008920
vn 0.099601 0.000000 -0.008920
vn 0.099601 0.000000 -0.008920
vn 0.099601 0.000000 -0.008920
vn 0.030140 0.000000 0.095350
vn 0.068709 0.000000 0.072657
vn 0.093519 0.000000 0.035415
vn 0.099601 0.000000 -0.008920
vn 0.099601 0.000000 -0.008920
vn 0.093519 0.000000 0.035415
vn 0.068709 0.000000 0.072657
vn 0.030140 0.000000 0.095350
vn 0.030140 0.000000 0.095350
vn 0.030140 0.000000 0.095350
vn 0.030140 0.000000 0.095350
vn 0.030140 0.000000 0.095350
vn 0.097135 0.000000 0.023765
vn 0.097135 0.000000 0.023765
vn 0.097135 0.000000 0.023765
vn 0.097135 0.000000 0.023765
vn 0.095350 0.000000 -0.030140
vn 0.095350 0.000000 -0.030140
vn 0.095350 0.000000 -0.030140
vn 0.095350 0.000000 -0.030140
vn 0.032265 0.000000 -0.094652
vn 0.032265 0.000000 -0.094652
vn 0.032265 0.000000 -0.094652
vn 0.032265 0.000000 -0.094652
vn 0.091033 0.000000 -0.041389
vn 0.091033 0.000000 -0.041389
vn 0.091033 0.000000 -0.041389
vn 0.091033 0.000000 -0.041389
vn 0.097660 0.000000 0.021507
vn 0.097660 0.000000 0.021507
vn 0.097660 0.000000 0.021507
vn 0.097660 0.000000 0.021507
vn 0.074641 0.000000 0.066549
vn 0.074641 0.000000 0.066549
vn 0.074641 0.000000 0.066549
vn 0.074641 0.000000 0.066549
vn -0.034645 0.000000 0.093807
vn -0.034645 0.000000 0.093807
vn -0.034645 0.000000 0.093807
vn -0.034645 0.000000 0.093807
vn 0.039063 0.000000 0.092055
vn 0.039063 0.000000 0.092055
vn 0.039063 0.000000 0.092055
vn 0.039063 0.000000 0.092055
vn -0.066549 0.000000 0.074641
vn -0.066549 0.000000 0.074641
vn -0.066549 0.000000 0.074641
vn -0.066549 0.000000 0.074641
vn 0.051207 0.000000 0.085894
vn 0.051207 0.000000 0.085894
vn 0.051207 0.000000 0.085894
vn 0.051207 0.000000 0.085894
vn -0.028723 0.000000 0.095786
vn -0.028723 0.000000 0.095786
vn -0.028723 0.000000 0.095786
vn -0.028723 0.000000 0.095786
vn -0.097645 0.000000 0.021576
vn -0.097645 0.000000 0.021576
vn -0.097645 0.000000 0.021576
vn -0.097645 0.000000 0.021576
vn -0.092055 0.000000 0.039063
vn -0.092055 0.000000 0.039063
vn -0.092055 0.000000 0.039063
vn -0.092055 0.000000 0.039063
vn -0.064119 0.000000 0.076738
vn -0.064119 0.000000 0.076738
vn -0.064119 0.000000 0.076738
vn -0.064119 0.000000 0.076738
vn -0.066549 0.000000 0.074641
vn -0.066549 0.000000 0.074641
vn -0.066549 0.000000 0.074641
vn -0.066549 0.000000 0.074641
vn -0.013160 0.000000 0.099130
vn -0.013160 0.000000 0.099130
vn -0.013160 0.000000 0.099130
vn -0.013160 0.000000 0.099130
vn -0.066549 0.000000 0.074641
vn -0.066549 0.000000 0.074641
vn -0.066549 0.000000 0.074641
vn -0.066549 0.000000 0.074641
vn -0.086990 0.000000 -0.049322
vn -0.086990 0.000000 -0.049322
vn -0.086990 0.000000 -0.049322
vn -0.086990 0.000000 -0.049322
vn 0.000000 0.000000 -0.100000
vn 0.000000 0.000000 -0.100000
vn 0.000000 0.000000 -0.100000
vn 0.000000 0.000000 -0.100000
vn -0.086990 0.000000 -0.049322
vn -0.086990 0.000000 -0.049322
vn -0.086990 0.000000 -0.049322
vn -0.086990 0.000000 -0.049322
vn -0.085894 0.000000 0.051207
vn -0.085894 0.000000 0.051207
vn -0.085894 0.000000 0.051207
vn -0.085894 0.000000 0.051207
vn -0.082885 0.000000 0.055947
vn -0.082885 0.000000 0.055947
vn -0.082885 0.000000 0.055947
vn -0.082885 0.000000 0.055947
vn -0.055947 0.000000 -0.082885
vn -0.055947 0.000000 -0.082885
vn -0.055947 0.000000 -0.082885
vn -0.055947 0.000000 -0.082885
vn -0.099130 0.000000 -0.013160
vn -0.099130 0.000000 -0.013160
vn -0.099130 0.000000 -0.013160
vn -0.099130 0.000000 -0.013160
vn -0.021576 0.000000 -0.097645
vn -0.021576 0.000000 -0.097645
vn -0.021576 0.000000 -0.097645
vn -0.021576 0.000000 -0.097645
vn 0.099601 0.000000 -0.008920
vn 0.099601 0.000000 -0.008920
vn 0.099601 0.000000 -0.008920
vn 0.099601 0.000000 -0.008920
vn 0.000000 0.100000 0.000000
vn 0.000000 0.100000 0.000000
vn 0.000000 0.100000 0.000000
vn 0.000000 0.100000 0.000000
vn 0.000000 0.100000 0.000000
vn 0.000000 0.100000 0.000000
vn 0.000000 0.100000 0.000000
vn 0.000000 0.100000 0.000000
vn 0.000000 0.100000 0.000000
vn 0.000000 0.100000 0.000000
vn 0.000000 0.100000 0.000000
vn 0.000000 0.100000 0.000000
vn 0.000000 0.100000 0.000000
vn 0.000000 0.100000 0.000000
vn 0.000000 0.100000 0.000000
vn 0.000000 0.100000 0.000000
vn 0.000000 0.100000 0.000000
vn 0.000000 0.100000 0.000000
vn 0.000000 0.100000 0.000000
vn 0.000000 0.100000 0.000000
vn 0.000000 0.100000 0.000000
vn 0.000000 0.100000 0.000000
vn 0.000000 0.100000 0.000000
vn 0.000000 0.100000 0.000000
vn 0.000000 0.100000 0.000000
vn 0.000000 0.100000 0.000000
vn 0.000000 0.100000 0.000000
vn 0.000000 0.100000 0.000000
vn 0.000000 0.100000 0.000000
vn 0.000000 0.100000 0.000000
vn 0.000000 0.100000 0.000000
vn 0.000000 0.100000 0.000000
vn 0.000000 0.100000 0.000000
vn 0.000000 0.100000 0.000000
vn 0.000000 0.100000 0.000000
vn 0.000000 0.100000 0.000000
vn 0.000000 0.100000 0.000000
vn 0.000000 0.100000 0.000000
vn 0.000000 0.100000 0.000000
vn 0.000000 0.100000 0.000000
vn 0.000000 0.100000 0.000000
vn 0.000000 0.100000 0.000000
vn 0.000000 -0.100000 0.000000
vn 0.000000 -0.100000 0.000000
vn 0.000000 -0.100000 0.000000
vn 0.000000 -0.100000 0.000000
vn 0.000000 -0.100000 0.000000
vn 0.000000 -0.100000 0.000000
vn 0.000000 -0.100000 0.000000
vn 0.000000 -0.100000 0.000000
vn 0.000000 -0.100000 0.000000
vn 0.000000 -0.100000 0.000000
vn 0.000000 -0.100000 0.000000
vn 0.000000 -0.100000 0.000000
vn 0.000000 -0.100000 0.000000
vn 0.000000 -0.100000 0.000000
vn 0.000000 -0.100000 0.000000
vn 0.000000 -0.100000 0.000000
vn 0.000000 -0.100000 0.000000
vn 0.000000 -0.100000 0.000000
vn 0.000000 -0.100000 0.000000
vn 0.000000 -0.100000 0.000000
vn 0.000000 -0.100000 0.000000
vn 0.000000 -0.100000 0.000000
vn 0.000000 -0.100000 0.000000
vn 0.000000 -0.100000 0.000000
vn 0.000000 -0.100000 0.000000
vn 0.000000 -0.100000 0.000000
vn 0.000000 -0.100000 0.000000
vn 0.000000 -0.100000 0.000000
vn 0.000000 -0.100000 0.000000
vn 0.000000 -0.100000 0.000000
vn 0.000000 -0.100000 0.000000
vn 0.000000 -0.100000 0.000000
vn 0.000000 -0.100000 0.000000
vn 0.000000 -0.100000 0.000000
vn 0.000000 -0.100000 0.000000
vn 0.000000 -0.100000 0.000000
vn 0.000000 -0.100000 0.000000
vn 0.000000 -0.100000 0.000000
vn 0.000000 -0.100000 0.000000
vn 0.000000 -0.100000 0.000000
vn 0.000000 -0.100000 0.000000
vn 0.000000 -0.100000 0.000000
usemtl 191,191,191
f 33/1/1 37/2/2 34/4/4
f 34/4/4 37/2/2 38/3/3
f 39/5/5 33/6/6 40/8/8
f 40/8/8 33/6/6 34/7/7
f 46/16/16 45/9/9 44/15/15
f 44/15/15 45/9/9 43/10/10
f 44/15/15 43/10/10 42/14/14
f 42/14/14 43/10/10 41/11/11
f 42/14/14 41/11/11 40/13/13
f 40/13/13 41/11/11 39/12/12
f 49/17/17 45/18/18 50/20/20
f 50/20/20 45/18/18 46/19/19
f 73/21/21 49/22/22 74/24/24
f 74/24/24 49/22/22 50/23/23
f 75/25/25 73/26/26 76/28/28
f 76/28/28 73/26/26 74/27/27
f 77/29/29 75/30/30 78/32/32
f 78/32/32 75/30/30 76/31/31
f 59/33/33 77/34/34 60/36/36
f 60/36/36 77/34/34 78/35/35
f 63/37/37 59/38/38 64/40/40
f 64/40/40 59/38/38 60/39/39
f 69/41/41 63/42/42 70/44/44
f 70/44/44 63/42/42 64/43/43
f 62/52/52 61/45/45 66/51/51
f 66/51/51 61/45/45 65/46/46
f 66/51/51 65/46/46 68/50/50
f 68/50/50 65/46/46 67/47/47
f 68/50/50 67/47/47 70/49/49
f 70/49/49 67/47/47 69/48/48
f 57/53/53 61/54/54 58/56/56
f 58/56/56 61/54/54 62/55/55
f 53/57/57 57/58/58 54/60/60
f 54/60/60 57/58/58 58/59/59
f 55/61/61 53/62/62 56/64/64
f 56/64/64 53/62/62 54/63/63
f 79/65/65 55/66/66 80/68/68
f 80/68/68 55/66/66 56/67/67
f 83/69/69 79/70/70 84/72/72
f 84/72/72 79/70/70 80/71/71
f 81/73/73 83/74/74 82/76/76
f 82/76/76 83/74/74 84/75/75
f 71/77/77 81/78/78 72/80/80
f 72/80/80 81/78/78 82/79/79
f 51/81/81 71/82/82 52/84/84
f 52/84/84 71/82/82 72/83/83
f 47/85/85 51/86/86 48/88/88
f 48/88/88 51/86/86 52/87/87
f 31/89/89 47/90/90 32/92/92
f 32/92/92 47/90/90 48/91/91
f 29/93/93 31/94/94 30/96/96
f 30/96/96 31/94/94 32/95/95
f 27/97/97 29/98/98 28/100/100
f 28/100/100 29/98/98 30/99/99
f 25/101/101 27/102/102 26/104/104
f 26/104/104 27/102/102 28/103/103
f 23/105/105 25/106/106 24/108/108
f 24/108/108 25/106/106 26/107/107
f 21/109/109 23/110/110 22/112/112
f 22/112/112 23/110/110 24/111/111
f 15/113/113 21/114/114 16/116/116
f 16/116/116 21/114/114 22/115/115
f 7/117/117 15/118/118 8/120/120
f 8/120/120 15/118/118 16/119/119
f 1/121/121 7/122/122 2/124/124
f 2/124/124 7/122/122 8/123/123
f 3/125/125 1/126/126 4/128/128
f 4/128/128 1/126/126 2/127/127
f 11/129/129 3/130/130 12/132/132
f 12/132/132 3/130/130 4/131/131
f 19/133/133 11/134/134 20/136/136
f 20/136/136 11/134/134 12/135/135
f 9/137/137 19/138/138 10/140/140
f 10/140/140 19/138/138 20/139/139
f 5/141/141 9/142/142 6/144/144
f 6/144/144 9/142/142 10/143/143
f 13/145/145 5/146/146 14/148/148
f 14/148/148 5/146/146 6/147/147
f 17/149/149 13/150/150 18/152/152
f 18/152/152 13/150/150 14/151/151
f 35/153/153 17/154/154 36/156/156
f 36/156/156 17/154/154 18/155/155
f 37/157/157 35/158/158 38/160/160
f 38/160/160 35/158/158 36/159/159
f 38/161/161 36/162/162 34/202/202
f 34/202/202 36/162/162 18/163/163
f 34/202/202 18/163/163 40/201/201
f 40/201/201 18/163/163 14/164/164
f 40/201/201 14/164/164 20/167/167
f 20/167/167 14/164/164 10/166/166
f 10/166/166 14/164/164 6/165/165
f 12/168/168 22/173/173 20/167/167
f 20/167/167 22/173/173 24/174/174
f 20/167/167 24/174/174 42/200/200
f 42/200/200 24/174/174 44/199/199
f 44/199/199 24/174/174 60/193/193
f 44/199/199 60/193/193 46/198/198
f 46/198/198 60/193/193 76/195/195
f 46/198/198 76/195/195 50/197/197
f 50/197/197 76/195/195 74/196/196
f 4/169/169 8/171/171 12/168/168
f 12/168/168 8/171/171 16/172/172
f 12/168/168 16/172/172 22/173/173
f 4/169/169 2/170/170 8/171/171
f 26/175/175 32/178/178 24/174/174
f 24/174/174 32/178/178 58/187/187
f 24/174/174 58/187/187 64/192/192
f 64/192/192 58/187/187 70/191/191
f 70/191/191 58/187/187 62/188/188
f 70/191/191 62/188/188 66/189/189
f 28/176/176 30/177/177 26/175/175
f 26/175/175 30/177/177 32/178/178
f 48/179/179 52/180/180 32/178/178
f 32/178/178 52/180/180 56/185/185
f 32/178/178 56/185/185 54/186/186
f 52/180/180 72/181/181 56/185/185
f 56/185/185 72/181/181 82/182/182
f 56/185/185 82/182/182 80/184/184
f 80/184/184 82/182/182 84/183/183
f 54/186/186 58/187/187 32/178/178
f 66/189/189 68/190/190 70/191/191
f 64/192/192 60/193/193 24/174/174
f 60/193/193 78/194/194 76/195/195
f 42/200/200 40/201/201 20/167/167
f 37/204/204 33/205/205 35/203/203
f 35/203/203 33/205/205 17/244/244
f 17/244/244 33/205/205 39/206/206
f 17/244/244 39/206/206 13/243/243
f 13/243/243 39/206/206 19/240/240
f 13/243/243 19/240/240 9/241/241
f 39/206/206 41/207/207 19/240/240
f 19/240/240 41/207/207 23/233/233
f 19/240/240 23/233/233 21/234/234
f 41/207/207 43/208/208 23/233/233
f 23/233/233 43/208/208 59/214/214
f 23/233/233 59/214/214 63/215/215
f 43/208/208 45/209/209 59/214/214
f 59/214/214 45/209/209 75/212/212
f 59/214/214 75/212/212 77/213/213
f 45/209/209 49/210/210 75/212/212
f 75/212/212 49/210/210 73/211/211
f 23/233/233 63/215/215 57/220/220
f 57/220/220 63/215/215 69/216/216
f 57/220/220 69/216/216 61/219/219
f 61/219/219 69/216/216 65/218/218
f 65/218/218 69/216/216 67/217/217
f 23/233/233 57/220/220 31/229/229
f 31/229/229 57/220/220 53/221/221
f 31/229/229 53/221/221 55/222/222
f 79/223/223 81/225/225 55/222/222
f 55/222/222 81/225/225 71/226/226
f 55/222/222 71/226/226 51/227/227
f 79/223/223 83/224/224 81/225/225
f 47/228/228 31/229/229 51/227/227
f 51/227/227 31/229/229 55/222/222
f 23/233/233 31/229/229 25/232/232
f 25/232/232 31/229/229 29/230/230
f 25/232/232 29/230/230 27/231/231
f 19/240/240 21/234/234 11/239/239
f 11/239/239 21/234/234 15/235/235
f 11/239/239 15/235/235 7/236/236
f 1/237/237 3/238/238 7/236/236
f 7/236/236 3/238/238 11/239/239
f 9/241/241 5/242/242 13/243/243
# 84 vertices
# 244 texture params
# 244 normals
# 164 facets

# 1 groups
