# WaveFront *.obj file (generated by Autodesk ATF)

mtllib MapEu.Egypt2.mtl

g Solid39

v -914.476700 0.000000 -140.626392
v -914.476700 10.000000 -140.626392
v -906.569290 0.000000 -99.444408
v -906.569290 0.000000 -52.462554
v -906.569290 10.000000 -99.444408
v -906.569290 10.000000 -52.462554
v -896.936264 0.000000 -99.444408
v -896.936264 10.000000 -99.444408
v -886.641235 0.000000 -99.388762
v -886.641235 10.000000 -99.388762
v -882.166443 0.000000 -17.656516
v -882.166443 10.000000 -17.656516
v -878.313675 0.000000 -86.999912
v -878.313675 10.000000 -86.999912
v -877.071152 0.000000 -77.876282
v -877.071152 10.000000 -77.876282
v -864.255905 0.000000 -28.608851
v -864.255905 10.000000 -28.608851
v -863.037949 0.000000 -80.661373
v -863.037949 10.000000 -80.661373
v -862.458267 0.000000 -76.404629
v -862.458267 10.000000 -76.404629
v -858.740616 0.000000 -20.438023
v -858.740616 10.000000 -20.438023
v -858.079605 0.000000 -58.357172
v -858.079605 10.000000 -58.357172
v -854.812622 0.000000 -65.077758
v -854.812622 10.000000 -65.077758
v -848.292465 0.000000 -27.490542
v -848.292465 10.000000 -27.490542
v -841.334076 0.000000 -25.028415
v -841.334076 10.000000 -25.028415
v -838.830643 0.000000 -29.281459
v -838.830643 10.000000 -29.281459
v -831.794586 0.000000 -22.147601
v -831.794586 10.000000 -22.147601
v -829.562759 0.000000 -20.568469
v -829.562759 10.000000 -20.568469
v -828.676529 0.000000 -27.444746
v -828.676529 10.000000 -27.444746
v -825.466385 0.000000 -26.358047
v -825.466385 10.000000 -26.358047
v -814.543304 0.000000 -26.758013
v -814.543304 10.000000 -26.758013
v -812.910156 0.000000 -31.373560
v -812.910156 10.000000 -31.373560
v -801.023941 0.000000 -36.050670
v -801.023941 10.000000 -36.050670
v -800.081482 0.000000 -41.260943
v -800.081482 10.000000 -41.260943
v -793.469543 0.000000 -43.862681
v -793.469543 10.000000 -43.862681
v -780.789185 0.000000 -58.084850
v -780.789185 10.000000 -58.084850
v -738.111725 0.000000 -54.119911
v -738.111725 10.000000 -54.119911
v -708.367691 0.000000 -55.089827
v -708.367691 10.000000 -55.089827
v -706.273346 0.000000 -139.762268
v -706.273346 10.000000 -139.762268
v -701.830292 0.000000 -119.900198
v -701.830292 10.000000 -119.900198
v -697.507477 0.000000 -59.698310
v -697.507477 10.000000 -59.698310
v -695.602112 0.000000 -104.072056
v -695.602112 10.000000 -104.072056
v -693.933792 0.000000 -84.599667
v -693.933792 0.000000 -75.606046
v -693.933792 10.000000 -84.599667
v -693.933792 10.000000 -75.606046
v -693.379059 0.000000 -56.596193
v -693.379059 10.000000 -56.596193
v -690.086517 0.000000 -89.719734
v -690.086517 10.000000 -89.719734
v -689.158859 0.000000 -94.526520
v -689.158859 10.000000 -94.526520
v -688.890610 0.000000 -71.109624
v -688.890610 0.000000 -62.569528
v -688.890610 10.000000 -71.109624
v -688.890610 10.000000 -62.569528
vt 0.000000 0.000000 0.000000
vt 4.975291 0.000000 0.000000
vt 4.975291 1.000000 0.000000
vt 0.000000 1.000000 0.000000
vt 0.000000 0.000000 0.000000
vt 20.820507 0.000000 0.000000
vt 20.820507 1.000000 0.000000
vt 0.000000 1.000000 0.000000
vt 0.000000 0.000000 0.000000
vt 2.035295 0.000000 0.000000
vt 2.035295 1.000000 0.000000
vt 0.000000 1.000000 0.000000
vt 0.000000 0.000000 0.000000
vt 1.700944 0.000000 0.000000
vt 1.700944 1.000000 0.000000
vt 0.000000 1.000000 0.000000
vt 0.000000 0.000000 0.000000
vt 1.151662 0.000000 0.000000
vt 1.151662 1.000000 0.000000
vt 0.000000 1.000000 0.000000
vt 0.000000 0.000000 0.000000
vt 0.489548 0.000000 0.000000
vt 0.489548 1.000000 0.000000
vt 0.000000 1.000000 0.000000
vt 0.000000 0.000000 0.000000
vt 0.640443 0.000000 0.000000
vt 0.640443 1.000000 0.000000
vt 0.000000 1.000000 0.000000
vt 0.000000 0.000000 0.000000
vt 0.899362 0.000000 0.000000
vt 0.899362 1.000000 0.000000
vt 0.000000 1.000000 0.000000
vt 0.000000 0.000000 0.000000
vt 0.675655 0.000000 0.000000
vt 0.675655 1.000000 0.000000
vt 0.000000 1.000000 0.000000
vt 0.000000 0.000000 0.000000
vt 0.854010 0.000000 0.000000
vt 0.854010 1.000000 0.000000
vt 0.000000 1.000000 0.000000
vt 0.000000 0.000000 0.000000
vt 0.747173 0.000000 0.000000
vt 0.747173 1.000000 0.000000
vt 0.000000 1.000000 0.000000
vt 0.000000 0.000000 0.000000
vt 0.516397 0.000000 0.000000
vt 0.516397 1.000000 0.000000
vt 0.000000 1.000000 0.000000
vt 0.000000 0.000000 0.000000
vt 1.179756 0.000000 0.000000
vt 1.179756 1.000000 0.000000
vt 0.000000 1.000000 0.000000
vt 0.000000 0.000000 0.000000
vt 2.975984 0.000000 0.000000
vt 2.975984 1.000000 0.000000
vt 0.000000 1.000000 0.000000
vt 0.000000 0.000000 0.000000
vt 4.286128 0.000000 0.000000
vt 4.286128 1.000000 0.000000
vt 0.000000 1.000000 0.000000
vt 0.000000 0.000000 0.000000
vt 1.905418 0.000000 0.000000
vt 1.905418 1.000000 0.000000
vt 0.000000 1.000000 0.000000
vt 0.000000 0.000000 0.000000
vt 0.710540 0.000000 0.000000
vt 0.710540 1.000000 0.000000
vt 0.000000 1.000000 0.000000
vt 0.000000 0.000000 0.000000
vt 0.529483 0.000000 0.000000
vt 0.529483 1.000000 0.000000
vt 0.000000 1.000000 0.000000
vt 0.000000 0.000000 0.000000
vt 1.277329 0.000000 0.000000
vt 1.277329 1.000000 0.000000
vt 0.000000 1.000000 0.000000
vt 0.000000 0.000000 0.000000
vt 0.489597 0.000000 0.000000
vt 0.489597 1.000000 0.000000
vt 0.000000 1.000000 0.000000
vt 0.000000 0.000000 0.000000
vt 1.093042 0.000000 0.000000
vt 1.093042 1.000000 0.000000
vt 0.000000 1.000000 0.000000
vt 0.000000 0.000000 0.000000
vt 0.709219 0.000000 0.000000
vt 0.709219 1.000000 0.000000
vt 0.000000 1.000000 0.000000
vt 0.000000 0.000000 0.000000
vt 0.273404 0.000000 0.000000
vt 0.273404 1.000000 0.000000
vt 0.000000 1.000000 0.000000
vt 0.000000 0.000000 0.000000
vt 0.614672 0.000000 0.000000
vt 0.614672 1.000000 0.000000
vt 0.000000 1.000000 0.000000
vt 0.000000 0.000000 0.000000
vt 1.031886 0.000000 0.000000
vt 1.031886 1.000000 0.000000
vt 0.000000 1.000000 0.000000
vt 0.000000 0.000000 0.000000
vt 0.493516 0.000000 0.000000
vt 0.493516 1.000000 0.000000
vt 0.000000 1.000000 0.000000
vt 0.000000 0.000000 0.000000
vt 0.738110 0.000000 0.000000
vt 0.738110 1.000000 0.000000
vt 0.000000 1.000000 0.000000
vt 0.000000 0.000000 0.000000
vt 1.260565 0.000000 0.000000
vt 1.260565 1.000000 0.000000
vt 0.000000 1.000000 0.000000
vt 0.000000 0.000000 0.000000
vt 0.985805 0.000000 0.000000
vt 0.985805 1.000000 0.000000
vt 0.000000 1.000000 0.000000
vt 0.000000 0.000000 0.000000
vt 2.099379 0.000000 0.000000
vt 2.099379 1.000000 0.000000
vt 0.000000 1.000000 0.000000
vt 0.000000 0.000000 0.000000
vt 4.250838 0.000000 0.000000
vt 4.250838 1.000000 0.000000
vt 0.000000 1.000000 0.000000
vt 0.000000 0.000000 0.000000
vt 4.698185 0.000000 0.000000
vt 4.698185 1.000000 0.000000
vt 0.000000 1.000000 0.000000
vt 0.000000 0.000000 0.000000
vt 0.963304 0.000000 0.000000
vt 0.963304 1.000000 0.000000
vt 0.000000 1.000000 0.000000
vt 0.000000 0.000000 0.000000
vt 2.239795 0.000000 0.000000
vt 2.239795 1.000000 0.000000
vt 0.000000 1.000000 0.000000
vt 0.000000 0.000000 0.000000
vt 0.920785 0.000000 0.000000
vt 0.920785 1.000000 0.000000
vt 0.000000 1.000000 0.000000
vt 0.000000 0.000000 0.000000
vt 2.723372 0.000000 0.000000
vt 2.723372 1.000000 0.000000
vt 0.000000 1.000000 0.000000
vt 0.000000 0.000000 0.000000
vt 0.747257 0.000000 0.000000
vt 0.747257 1.000000 0.000000
vt 0.000000 1.000000 0.000000
vt 0.000000 0.000000 0.000000
vt 1.366578 0.000000 0.000000
vt 1.366578 1.000000 0.000000
vt 0.000000 1.000000 0.000000
vt 0.000000 0.000000 0.000000
vt 0.429604 0.000000 0.000000
vt 0.429604 1.000000 0.000000
vt 0.000000 1.000000 0.000000
vt 0.000000 0.000000 0.000000
vt 3.013024 0.000000 0.000000
vt 3.013024 1.000000 0.000000
vt 0.000000 1.000000 0.000000
vt -2.024731 -8.495762 0.000000
vt -0.151992 -6.135432 0.000000
vt 0.273683 -6.077461 0.000000
vt 1.406370 -5.312898 0.000000
vt 2.078428 -5.639593 0.000000
vt 0.126517 -7.538750 0.000000
vt -0.785846 -7.663000 0.000000
vt -2.030295 -9.525265 0.000000
vt -2.030295 -10.488568 0.000000
vt 2.667890 -10.488568 0.000000
vt 6.148494 -8.048278 0.000000
vt 5.053260 -6.257229 0.000000
vt 5.870343 -5.705698 0.000000
vt 5.165092 -4.660880 0.000000
vt 5.411304 -3.965046 0.000000
vt 4.986000 -3.714698 0.000000
vt 5.169671 -2.699290 0.000000
vt 5.699386 -3.011097 0.000000
vt 5.857299 -2.787909 0.000000
vt 5.278341 -2.378276 0.000000
vt 5.238344 -1.285965 0.000000
vt 4.776790 -1.122650 0.000000
vt 4.309079 0.065970 0.000000
vt 3.788051 0.160215 0.000000
vt 3.527877 0.821409 0.000000
vt 2.105660 2.089446 0.000000
vt 2.502154 6.357195 0.000000
vt 2.405163 9.331598 0.000000
vt 1.944314 10.417621 0.000000
vt 2.254526 10.830459 0.000000
vt 1.657193 11.279302 0.000000
vt 0.803183 11.279302 0.000000
vt 0.353541 10.774988 0.000000
vt -0.545821 10.774988 0.000000
vt -1.057828 11.159717 0.000000
vt -1.538507 11.252479 0.000000
vt -2.493060 10.608155 0.000000
vt -4.075874 9.985332 0.000000
vt -6.062081 9.541026 0.000000
vt -6.148494 -11.279302 0.000000
vt 0.151992 -6.135432 0.000000
vt 2.024731 -8.495762 0.000000
vt 6.148494 -11.279302 0.000000
vt 6.062081 9.541026 0.000000
vt 4.075874 9.985332 0.000000
vt 2.493060 10.608155 0.000000
vt 1.538507 11.252479 0.000000
vt 1.057828 11.159717 0.000000
vt 0.545821 10.774988 0.000000
vt -0.353541 10.774988 0.000000
vt -0.803183 11.279302 0.000000
vt -1.657193 11.279302 0.000000
vt -2.254526 10.830459 0.000000
vt -1.944314 10.417621 0.000000
vt -2.405163 9.331598 0.000000
vt -2.502154 6.357195 0.000000
vt -2.105660 2.089446 0.000000
vt -3.527877 0.821409 0.000000
vt -3.788051 0.160215 0.000000
vt -4.309079 0.065970 0.000000
vt -4.776790 -1.122650 0.000000
vt -5.238344 -1.285965 0.000000
vt -5.278341 -2.378276 0.000000
vt -5.857299 -2.787909 0.000000
vt -5.699386 -3.011097 0.000000
vt -5.169671 -2.699290 0.000000
vt -4.986000 -3.714698 0.000000
vt -5.411304 -3.965046 0.000000
vt -5.165092 -4.660880 0.000000
vt -5.870343 -5.705698 0.000000
vt -5.053260 -6.257229 0.000000
vt -6.148494 -8.048278 0.000000
vt -2.667890 -10.488568 0.000000
vt 2.030295 -10.488568 0.000000
vt 2.030295 -9.525265 0.000000
vt 0.785846 -7.663000 0.000000
vt -0.126517 -7.538750 0.000000
vt -2.078428 -5.639593 0.000000
vt -1.406370 -5.312898 0.000000
vt -0.273683 -6.077461 0.000000
vn -0.082885 0.000000 0.055947
vn -0.082885 0.000000 0.055947
vn -0.082885 0.000000 0.055947
vn -0.082885 0.000000 0.055947
vn 0.000415 0.000000 -0.099999
vn 0.000415 0.000000 -0.099999
vn 0.000415 0.000000 -0.099999
vn 0.000415 0.000000 -0.099999
vn 0.097588 0.000000 -0.021830
vn 0.097588 0.000000 -0.021830
vn 0.097588 0.000000 -0.021830
vn 0.097588 0.000000 -0.021830
vn 0.093055 0.000000 -0.036616
vn 0.093055 0.000000 -0.036616
vn 0.093055 0.000000 -0.036616
vn 0.093055 0.000000 -0.036616
vn 0.082885 0.000000 -0.055947
vn 0.082885 0.000000 -0.055947
vn 0.082885 0.000000 -0.055947
vn 0.082885 0.000000 -0.055947
vn 0.098188 0.000000 0.018948
vn 0.098188 0.000000 0.018948
vn 0.098188 0.000000 0.018948
vn 0.098188 0.000000 0.018948
vn 0.079946 0.000000 0.060072
vn 0.079946 0.000000 0.060072
vn 0.079946 0.000000 0.060072
vn 0.079946 0.000000 0.060072
vn 0.100000 0.000000 0.000000
vn 0.100000 0.000000 0.000000
vn 0.100000 0.000000 0.000000
vn 0.100000 0.000000 0.000000
vn 0.066549 0.000000 -0.074641
vn 0.066549 0.000000 -0.074641
vn 0.066549 0.000000 -0.074641
vn 0.066549 0.000000 -0.074641
vn 0.100000 0.000000 0.000000
vn 0.100000 0.000000 0.000000
vn 0.100000 0.000000 0.000000
vn 0.100000 0.000000 0.000000
vn 0.079946 0.000000 0.060072
vn 0.079946 0.000000 0.060072
vn 0.079946 0.000000 0.060072
vn 0.079946 0.000000 0.060072
vn -0.060072 0.000000 0.079946
vn -0.060072 0.000000 0.079946
vn -0.060072 0.000000 0.079946
vn -0.060072 0.000000 0.079946
vn 0.039063 0.000000 0.092055
vn 0.039063 0.000000 0.092055
vn 0.039063 0.000000 0.092055
vn 0.039063 0.000000 0.092055
vn 0.003259 0.000000 0.099947
vn 0.003259 0.000000 0.099947
vn 0.003259 0.000000 0.099947
vn 0.003259 0.000000 0.099947
vn -0.009251 0.000000 0.099571
vn -0.009251 0.000000 0.099571
vn -0.009251 0.000000 0.099571
vn -0.009251 0.000000 0.099571
vn 0.074641 0.000000 0.066549
vn 0.074641 0.000000 0.066549
vn 0.074641 0.000000 0.066549
vn 0.074641 0.000000 0.066549
vn 0.036616 0.000000 0.093055
vn 0.036616 0.000000 0.093055
vn 0.036616 0.000000 0.093055
vn 0.036616 0.000000 0.093055
vn 0.098403 0.000000 0.017800
vn 0.098403 0.000000 0.017800
vn 0.098403 0.000000 0.017800
vn 0.098403 0.000000 0.017800
vn 0.036616 0.000000 0.093055
vn 0.036616 0.000000 0.093055
vn 0.036616 0.000000 0.093055
vn 0.036616 0.000000 0.093055
vn 0.094272 0.000000 0.033357
vn 0.094272 0.000000 0.033357
vn 0.094272 0.000000 0.033357
vn 0.094272 0.000000 0.033357
vn 0.003659 0.000000 0.099933
vn 0.003659 0.000000 0.099933
vn 0.003659 0.000000 0.099933
vn 0.003659 0.000000 0.099933
vn 0.081633 0.000000 0.057758
vn 0.081633 0.000000 0.057758
vn 0.081633 0.000000 0.057758
vn 0.081633 0.000000 0.057758
vn -0.057758 0.000000 0.081633
vn -0.057758 0.000000 0.081633
vn -0.057758 0.000000 0.081633
vn -0.057758 0.000000 0.081633
vn -0.086178 0.000000 -0.050727
vn -0.086178 0.000000 -0.050727
vn -0.086178 0.000000 -0.050727
vn -0.086178 0.000000 -0.050727
vn -0.017800 0.000000 0.098403
vn -0.017800 0.000000 0.098403
vn -0.017800 0.000000 0.098403
vn -0.017800 0.000000 0.098403
vn 0.086178 0.000000 0.050727
vn 0.086178 0.000000 0.050727
vn 0.086178 0.000000 0.050727
vn 0.086178 0.000000 0.050727
vn -0.033357 0.000000 0.094272
vn -0.033357 0.000000 0.094272
vn -0.033357 0.000000 0.094272
vn -0.033357 0.000000 0.094272
vn 0.055947 0.000000 0.082885
vn 0.055947 0.000000 0.082885
vn 0.055947 0.000000 0.082885
vn 0.055947 0.000000 0.082885
vn -0.082885 0.000000 0.055947
vn -0.082885 0.000000 0.055947
vn -0.082885 0.000000 0.055947
vn -0.082885 0.000000 0.055947
vn 0.052169 0.000000 0.085313
vn 0.052169 0.000000 0.085313
vn 0.052169 0.000000 0.085313
vn 0.052169 0.000000 0.085313
vn -0.081880 0.000000 0.057407
vn -0.081880 0.000000 0.057407
vn -0.081880 0.000000 0.057407
vn -0.081880 0.000000 0.057407
vn -0.100000 0.000000 0.000000
vn -0.100000 0.000000 0.000000
vn -0.100000 0.000000 0.000000
vn -0.100000 0.000000 0.000000
vn 0.000000 0.000000 -0.100000
vn 0.000000 0.000000 -0.100000
vn 0.000000 0.000000 -0.100000
vn 0.000000 0.000000 -0.100000
vn 0.055561 0.000000 -0.083144
vn 0.055561 0.000000 -0.083144
vn 0.055561 0.000000 -0.083144
vn 0.055561 0.000000 -0.083144
vn 0.099085 0.000000 -0.013494
vn 0.099085 0.000000 -0.013494
vn 0.099085 0.000000 -0.013494
vn 0.099085 0.000000 -0.013494
vn 0.071673 0.000000 -0.069735
vn 0.071673 0.000000 -0.069735
vn 0.071673 0.000000 -0.069735
vn 0.071673 0.000000 -0.069735
vn -0.089937 0.000000 -0.043719
vn -0.089937 0.000000 -0.043719
vn -0.089937 0.000000 -0.043719
vn -0.089937 0.000000 -0.043719
vn -0.082885 0.000000 0.055947
vn -0.082885 0.000000 0.055947
vn -0.082885 0.000000 0.055947
vn -0.082885 0.000000 0.055947
vn -0.099085 0.000000 0.013494
vn -0.099085 0.000000 0.013494
vn -0.099085 0.000000 0.013494
vn -0.099085 0.000000 0.013494
vn -0.062155 0.000000 0.078338
vn -0.062155 0.000000 0.078338
vn -0.062155 0.000000 0.078338
vn -0.062155 0.000000 0.078338
vn 0.000000 0.100000 0.000000
vn 0.000000 0.100000 0.000000
vn 0.000000 0.100000 0.000000
vn 0.000000 0.100000 0.000000
vn 0.000000 0.100000 0.000000
vn 0.000000 0.100000 0.000000
vn 0.000000 0.100000 0.000000
vn 0.000000 0.100000 0.000000
vn 0.000000 0.100000 0.000000
vn 0.000000 0.100000 0.000000
vn 0.000000 0.100000 0.000000
vn 0.000000 0.100000 0.000000
vn 0.000000 0.100000 0.000000
vn 0.000000 0.100000 0.000000
vn 0.000000 0.100000 0.000000
vn 0.000000 0.100000 0.000000
vn 0.000000 0.100000 0.000000
vn 0.000000 0.100000 0.000000
vn 0.000000 0.100000 0.000000
vn 0.000000 0.100000 0.000000
vn 0.000000 0.100000 0.000000
vn 0.000000 0.100000 0.000000
vn 0.000000 0.100000 0.000000
vn 0.000000 0.100000 0.000000
vn 0.000000 0.100000 0.000000
vn 0.000000 0.100000 0.000000
vn 0.000000 0.100000 0.000000
vn 0.000000 0.100000 0.000000
vn 0.000000 0.100000 0.000000
vn 0.000000 0.100000 0.000000
vn 0.000000 0.100000 0.000000
vn 0.000000 0.100000 0.000000
vn 0.000000 0.100000 0.000000
vn 0.000000 0.100000 0.000000
vn 0.000000 0.100000 0.000000
vn 0.000000 0.100000 0.000000
vn 0.000000 0.100000 0.000000
vn 0.000000 0.100000 0.000000
vn 0.000000 0.100000 0.000000
vn 0.000000 0.100000 0.000000
vn 0.000000 -0.100000 0.000000
vn 0.000000 -0.100000 0.000000
vn 0.000000 -0.100000 0.000000
vn 0.000000 -0.100000 0.000000
vn 0.000000 -0.100000 0.000000
vn 0.000000 -0.100000 0.000000
vn 0.000000 -0.100000 0.000000
vn 0.000000 -0.100000 0.000000
vn 0.000000 -0.100000 0.000000
vn 0.000000 -0.100000 0.000000
vn 0.000000 -0.100000 0.000000
vn 0.000000 -0.100000 0.000000
vn 0.000000 -0.100000 0.000000
vn 0.000000 -0.100000 0.000000
vn 0.000000 -0.100000 0.000000
vn 0.000000 -0.100000 0.000000
vn 0.000000 -0.100000 0.000000
vn 0.000000 -0.100000 0.000000
vn 0.000000 -0.100000 0.000000
vn 0.000000 -0.100000 0.000000
vn 0.000000 -0.100000 0.000000
vn 0.000000 -0.100000 0.000000
vn 0.000000 -0.100000 0.000000
vn 0.000000 -0.100000 0.000000
vn 0.000000 -0.100000 0.000000
vn 0.000000 -0.100000 0.000000
vn 0.000000 -0.100000 0.000000
vn 0.000000 -0.100000 0.000000
vn 0.000000 -0.100000 0.000000
vn 0.000000 -0.100000 0.000000
vn 0.000000 -0.100000 0.000000
vn 0.000000 -0.100000 0.000000
vn 0.000000 -0.100000 0.000000
vn 0.000000 -0.100000 0.000000
vn 0.000000 -0.100000 0.000000
vn 0.000000 -0.100000 0.000000
vn 0.000000 -0.100000 0.000000
vn 0.000000 -0.100000 0.000000
vn 0.000000 -0.100000 0.000000
vn 0.000000 -0.100000 0.000000
usemtl 191,191,191
f 1/1/1 9/2/2 2/4/4
f 2/4/4 9/2/2 10/3/3
f 59/5/5 1/6/6 60/8/8
f 60/8/8 1/6/6 2/7/7
f 61/9/9 59/10/10 62/12/12
f 62/12/12 59/10/10 60/11/11
f 65/13/13 61/14/14 66/16/16
f 66/16/16 61/14/14 62/15/15
f 75/17/17 65/18/18 76/20/20
f 76/20/20 65/18/18 66/19/19
f 73/21/21 75/22/22 74/24/24
f 74/24/24 75/22/22 76/23/23
f 67/25/25 73/26/26 69/28/28
f 69/28/28 73/26/26 74/27/27
f 68/29/29 67/30/30 70/32/32
f 70/32/32 67/30/30 69/31/31
f 77/33/33 68/34/34 79/36/36
f 79/36/36 68/34/34 70/35/35
f 78/37/37 77/38/38 80/40/40
f 80/40/40 77/38/38 79/39/39
f 71/41/41 78/42/42 72/44/44
f 72/44/44 78/42/42 80/43/43
f 63/45/45 71/46/46 64/48/48
f 64/48/48 71/46/46 72/47/47
f 57/49/49 63/50/50 58/52/52
f 58/52/52 63/50/50 64/51/51
f 55/53/53 57/54/54 56/56/56
f 56/56/56 57/54/54 58/55/55
f 53/57/57 55/58/58 54/60/60
f 54/60/60 55/58/58 56/59/59
f 51/61/61 53/62/62 52/64/64
f 52/64/64 53/62/62 54/63/63
f 49/65/65 51/66/66 50/68/68
f 50/68/68 51/66/66 52/67/67
f 47/69/69 49/70/70 48/72/72
f 48/72/72 49/70/70 50/71/71
f 45/73/73 47/74/74 46/76/76
f 46/76/76 47/74/74 48/75/75
f 43/77/77 45/78/78 44/80/80
f 44/80/80 45/78/78 46/79/79
f 41/81/81 43/82/82 42/84/84
f 42/84/84 43/82/82 44/83/83
f 37/85/85 41/86/86 38/88/88
f 38/88/88 41/86/86 42/87/87
f 35/89/89 37/90/90 36/92/92
f 36/92/92 37/90/90 38/91/91
f 39/93/93 35/94/94 40/96/96
f 40/96/96 35/94/94 36/95/95
f 33/97/97 39/98/98 34/100/100
f 34/100/100 39/98/98 40/99/99
f 31/101/101 33/102/102 32/104/104
f 32/104/104 33/102/102 34/103/103
f 29/105/105 31/106/106 30/108/108
f 30/108/108 31/106/106 32/107/107
f 23/109/109 29/110/110 24/112/112
f 24/112/112 29/110/110 30/111/111
f 17/113/113 23/114/114 18/116/116
f 18/116/116 23/114/114 24/115/115
f 11/117/117 17/118/118 12/120/120
f 12/120/120 17/118/118 18/119/119
f 4/121/121 11/122/122 6/124/124
f 6/124/124 11/122/122 12/123/123
f 3/125/125 4/126/126 5/128/128
f 5/128/128 4/126/126 6/127/127
f 7/129/129 3/130/130 8/132/132
f 8/132/132 3/130/130 5/131/131
f 13/133/133 7/134/134 14/136/136
f 14/136/136 7/134/134 8/135/135
f 15/137/137 13/138/138 16/140/140
f 16/140/140 13/138/138 14/139/139
f 25/141/141 15/142/142 26/144/144
f 26/144/144 15/142/142 16/143/143
f 27/145/145 25/146/146 28/148/148
f 28/148/148 25/146/146 26/147/147
f 21/149/149 27/150/150 22/152/152
f 22/152/152 27/150/150 28/151/151
f 19/153/153 21/154/154 20/156/156
f 20/156/156 21/154/154 22/155/155
f 9/157/157 19/158/158 10/160/160
f 10/160/160 19/158/158 20/159/159
f 20/162/162 62/198/198 10/161/161
f 10/161/161 62/198/198 60/199/199
f 10/161/161 60/199/199 2/200/200
f 62/198/198 20/162/162 54/186/186
f 54/186/186 20/162/162 22/163/163
f 54/186/186 22/163/163 28/164/164
f 26/165/165 50/184/184 28/164/164
f 28/164/164 50/184/184 52/185/185
f 28/164/164 52/185/185 54/186/186
f 16/166/166 6/170/170 26/165/165
f 26/165/165 6/170/170 18/172/172
f 26/165/165 18/172/172 30/174/174
f 30/174/174 18/172/172 24/173/173
f 6/170/170 16/166/166 5/169/169
f 5/169/169 16/166/166 14/167/167
f 5/169/169 14/167/167 8/168/168
f 6/170/170 12/171/171 18/172/172
f 32/175/175 34/176/176 30/174/174
f 30/174/174 34/176/176 26/165/165
f 26/165/165 34/176/176 46/182/182
f 46/182/182 34/176/176 40/177/177
f 46/182/182 40/177/177 42/180/180
f 42/180/180 40/177/177 36/178/178
f 42/180/180 36/178/178 38/179/179
f 42/180/180 44/181/181 46/182/182
f 48/183/183 50/184/184 46/182/182
f 46/182/182 50/184/184 26/165/165
f 56/187/187 69/194/194 54/186/186
f 54/186/186 69/194/194 66/197/197
f 54/186/186 66/197/197 62/198/198
f 69/194/194 56/187/187 70/193/193
f 70/193/193 56/187/187 58/188/188
f 70/193/193 58/188/188 64/189/189
f 72/190/190 80/191/191 64/189/189
f 64/189/189 80/191/191 79/192/192
f 64/189/189 79/192/192 70/193/193
f 69/194/194 74/195/195 66/197/197
f 66/197/197 74/195/195 76/196/196
f 9/202/202 61/205/205 19/201/201
f 19/201/201 61/205/205 53/217/217
f 19/201/201 53/217/217 21/240/240
f 21/240/240 53/217/217 27/239/239
f 27/239/239 53/217/217 51/218/218
f 27/239/239 51/218/218 49/219/219
f 1/203/203 59/204/204 9/202/202
f 9/202/202 59/204/204 61/205/205
f 61/205/205 65/206/206 53/217/217
f 53/217/217 65/206/206 67/209/209
f 53/217/217 67/209/209 55/216/216
f 55/216/216 67/209/209 68/210/210
f 55/216/216 68/210/210 57/215/215
f 57/215/215 68/210/210 63/214/214
f 63/214/214 68/210/210 77/211/211
f 63/214/214 77/211/211 78/212/212
f 75/207/207 73/208/208 65/206/206
f 65/206/206 73/208/208 67/209/209
f 78/212/212 71/213/213 63/214/214
f 47/220/220 45/221/221 49/219/219
f 49/219/219 45/221/221 25/238/238
f 49/219/219 25/238/238 27/239/239
f 43/222/222 41/223/223 45/221/221
f 45/221/221 41/223/223 39/226/226
f 45/221/221 39/226/226 33/227/227
f 37/224/224 35/225/225 41/223/223
f 41/223/223 35/225/225 39/226/226
f 31/228/228 29/229/229 33/227/227
f 33/227/227 29/229/229 25/238/238
f 33/227/227 25/238/238 45/221/221
f 23/230/230 17/231/231 29/229/229
f 29/229/229 17/231/231 25/238/238
f 11/232/232 4/233/233 17/231/231
f 17/231/231 4/233/233 25/238/238
f 25/238/238 4/233/233 15/237/237
f 15/237/237 4/233/233 3/234/234
f 15/237/237 3/234/234 13/236/236
f 13/236/236 3/234/234 7/235/235
# 80 vertices
# 240 texture params
# 240 normals
# 156 facets

# 1 groups
