# WaveFront *.obj file (generated by Autodesk ATF)

mtllib MapEu.Albania.mtl

g Solid52

v -584.457054 0.000000 146.409588
v -584.457054 10.000000 146.409588
v -583.983231 0.000000 143.954344
v -583.983231 10.000000 143.954344
v -582.925491 0.000000 147.775097
v -582.925491 0.000000 152.649899
v -582.925491 10.000000 147.775097
v -582.925491 10.000000 152.649899
v -581.044960 0.000000 140.658827
v -581.044960 10.000000 140.658827
v -578.807487 0.000000 131.513538
v -578.807487 10.000000 131.513538
v -578.519211 0.000000 152.649899
v -578.519211 10.000000 152.649899
v -575.033989 0.000000 130.320740
v -575.033989 10.000000 130.320740
v -573.786926 0.000000 123.858652
v -573.786926 10.000000 123.858652
v -572.445641 0.000000 162.837658
v -572.445641 0.000000 179.814167
v -572.445641 10.000000 162.837658
v -572.445641 10.000000 179.814167
v -570.465508 0.000000 120.133381
v -570.465508 10.000000 120.133381
v -566.167183 0.000000 184.531860
v -566.167183 10.000000 184.531860
v -563.946953 0.000000 128.240833
v -563.946953 10.000000 128.240833
v -560.778961 0.000000 188.018436
v -560.778961 10.000000 188.018436
v -554.950027 0.000000 135.001211
v -554.950027 10.000000 135.001211
v -551.929321 0.000000 167.024212
v -551.929321 10.000000 167.024212
v -551.795998 0.000000 189.690323
v -551.795998 10.000000 189.690323
v -547.834435 0.000000 176.483040
v -547.834435 10.000000 176.483040
v -547.827682 0.000000 176.114578
v -547.827682 10.000000 176.114578
v -547.707291 0.000000 176.828918
v -547.707291 10.000000 176.828918
v -547.687912 0.000000 175.773602
v -547.687912 10.000000 175.773602
v -547.416534 0.000000 175.354195
v -547.416534 10.000000 175.354195
v -547.247314 0.000000 175.155411
v -547.247314 10.000000 175.155411
v -547.032433 0.000000 175.007191
v -547.032433 10.000000 175.007191
v -546.792068 0.000000 178.364105
v -546.792068 10.000000 178.364105
v -546.786499 0.000000 174.919643
v -546.786499 10.000000 174.919643
v -546.751671 0.000000 179.313354
v -546.751671 10.000000 179.313354
v -546.672478 0.000000 178.670082
v -546.672478 10.000000 178.670082
v -546.658516 0.000000 178.998318
v -546.658516 10.000000 178.998318
vt 0.000000 0.000000 0.000000
vt 0.205188 0.000000 0.000000
vt 0.205188 1.000000 0.000000
vt 0.000000 1.000000 0.000000
vt 0.000000 0.000000 0.000000
vt 0.250054 0.000000 0.000000
vt 0.250054 1.000000 0.000000
vt 0.000000 1.000000 0.000000
vt 0.000000 0.000000 0.000000
vt 0.441517 0.000000 0.000000
vt 0.441517 1.000000 0.000000
vt 0.000000 1.000000 0.000000
vt 0.000000 0.000000 0.000000
vt 0.941502 0.000000 0.000000
vt 0.941502 1.000000 0.000000
vt 0.000000 1.000000 0.000000
vt 0.000000 0.000000 0.000000
vt 0.395754 0.000000 0.000000
vt 0.395754 1.000000 0.000000
vt 0.000000 1.000000 0.000000
vt 0.000000 0.000000 0.000000
vt 0.658131 0.000000 0.000000
vt 0.658131 1.000000 0.000000
vt 0.000000 1.000000 0.000000
vt 0.000000 0.000000 0.000000
vt 0.499093 0.000000 0.000000
vt 0.499093 1.000000 0.000000
vt 0.000000 1.000000 0.000000
vt 0.000000 0.000000 0.000000
vt 1.040301 0.000000 0.000000
vt 1.040301 1.000000 0.000000
vt 0.000000 1.000000 0.000000
vt 0.000000 0.000000 0.000000
vt 1.125375 0.000000 0.000000
vt 1.125375 1.000000 0.000000
vt 0.000000 1.000000 0.000000
vt 0.000000 0.000000 0.000000
vt 3.216516 0.000000 0.000000
vt 3.216516 1.000000 0.000000
vt 0.000000 1.000000 0.000000
vt 0.000000 0.000000 0.000000
vt 0.942266 0.000000 0.000000
vt 0.942266 1.000000 0.000000
vt 0.000000 1.000000 0.000000
vt 0.000000 -0.157080 0.000000
vt 0.000000 -0.183260 0.000000
vt 0.000000 -0.209440 0.000000
vt 0.000000 -0.235619 0.000000
vt 1.000000 -0.235619 0.000000
vt 1.000000 -0.209440 0.000000
vt 1.000000 -0.183260 0.000000
vt 1.000000 -0.157080 0.000000
vt 0.000000 0.000000 0.000000
vt 0.049954 0.000000 0.000000
vt 0.049954 1.000000 0.000000
vt 0.000000 1.000000 0.000000
vt 0.000000 -0.202968 0.000000
vt 0.000000 -0.240032 0.000000
vt 0.000000 -0.277096 0.000000
vt 0.000000 -0.314159 0.000000
vt 1.000000 -0.314159 0.000000
vt 1.000000 -0.277096 0.000000
vt 1.000000 -0.240032 0.000000
vt 1.000000 -0.202968 0.000000
vt 0.000000 0.000000 0.000000
vt 0.178728 0.000000 0.000000
vt 0.178728 1.000000 0.000000
vt 0.000000 1.000000 0.000000
vt -0.000000 0.000000 0.000000
vt -0.000000 0.033002 0.000000
vt -0.000000 0.066005 0.000000
vt -0.000000 0.099007 0.000000
vt -1.000000 0.099007 0.000000
vt -1.000000 0.066005 0.000000
vt -1.000000 0.033002 0.000000
vt -1.000000 0.000000 0.000000
vt 0.000000 0.000000 0.000000
vt 1.153805 0.000000 0.000000
vt 1.153805 1.000000 0.000000
vt 0.000000 1.000000 0.000000
vt 0.000000 0.000000 0.000000
vt 0.913721 0.000000 0.000000
vt 0.913721 1.000000 0.000000
vt 0.000000 1.000000 0.000000
vt 0.000000 0.000000 0.000000
vt 0.641789 0.000000 0.000000
vt 0.641789 1.000000 0.000000
vt 0.000000 1.000000 0.000000
vt 0.000000 0.000000 0.000000
vt 0.785337 0.000000 0.000000
vt 0.785337 1.000000 0.000000
vt 0.000000 1.000000 0.000000
vt 0.000000 0.000000 0.000000
vt 1.697650 0.000000 0.000000
vt 1.697650 1.000000 0.000000
vt 0.000000 1.000000 0.000000
vt 0.000000 0.000000 0.000000
vt 1.186081 0.000000 0.000000
vt 1.186081 1.000000 0.000000
vt 0.000000 1.000000 0.000000
vt 0.000000 0.000000 0.000000
vt 0.440629 0.000000 0.000000
vt 0.440629 1.000000 0.000000
vt 0.000000 1.000000 0.000000
vt 0.000000 0.000000 0.000000
vt 0.487480 0.000000 0.000000
vt 0.487480 1.000000 0.000000
vt 0.000000 1.000000 0.000000
vt -0.713676 -1.737147 0.000000
vt -0.226195 -1.737147 0.000000
vt -0.226195 -1.296518 0.000000
vt 0.792581 -0.689160 0.000000
vt 2.490231 -0.689160 0.000000
vt 2.962000 -0.061316 0.000000
vt 3.310658 0.477507 0.000000
vt 3.477847 1.375802 0.000000
vt 2.440151 1.880238 0.000000
vt 2.408647 1.889552 0.000000
vt 2.375823 1.888154 0.000000
vt 2.345225 1.876195 0.000000
vt 2.191707 1.784673 0.000000
vt 2.157119 1.771958 0.000000
vt 2.120273 1.772635 0.000000
vt 2.086174 1.786611 0.000000
vt 2.044235 1.813749 0.000000
vt 2.024356 1.830670 0.000000
vt 2.009535 1.852160 0.000000
vt 2.000780 1.876754 0.000000
vt 1.211236 1.362472 0.000000
vt -1.991064 1.060399 0.000000
vt -2.667102 0.160710 0.000000
vt -3.477847 -0.491148 0.000000
vt -3.105320 -0.823290 0.000000
vt -2.459111 -0.947996 0.000000
vt -2.339831 -1.325346 0.000000
vt -1.425302 -1.549094 0.000000
vt -1.095751 -1.842919 0.000000
vt -0.850226 -1.890301 0.000000
vt 0.226195 -1.737147 0.000000
vt 0.713676 -1.737147 0.000000
vt 0.850226 -1.890301 0.000000
vt 1.095751 -1.842919 0.000000
vt 1.425302 -1.549094 0.000000
vt 2.339831 -1.325346 0.000000
vt 2.459111 -0.947996 0.000000
vt 3.105320 -0.823290 0.000000
vt 3.477847 -0.491148 0.000000
vt 2.667102 0.160710 0.000000
vt 1.991064 1.060399 0.000000
vt -1.211236 1.362472 0.000000
vt -2.000780 1.876754 0.000000
vt -2.009535 1.852160 0.000000
vt -2.024356 1.830670 0.000000
vt -2.044235 1.813749 0.000000
vt -2.086174 1.786611 0.000000
vt -2.120273 1.772635 0.000000
vt -2.157119 1.771958 0.000000
vt -2.191707 1.784673 0.000000
vt -2.345225 1.876195 0.000000
vt -2.375823 1.888154 0.000000
vt -2.408647 1.889552 0.000000
vt -2.440151 1.880238 0.000000
vt -3.477847 1.375802 0.000000
vt -3.310658 0.477507 0.000000
vt -2.962000 -0.061316 0.000000
vt -2.490231 -0.689160 0.000000
vt -0.792581 -0.689160 0.000000
vt 0.226195 -1.296518 0.000000
vn -0.066549 0.000000 0.074641
vn -0.066549 0.000000 0.074641
vn -0.066549 0.000000 0.074641
vn -0.066549 0.000000 0.074641
vn -0.098188 0.000000 -0.018948
vn -0.098188 0.000000 -0.018948
vn -0.098188 0.000000 -0.018948
vn -0.098188 0.000000 -0.018948
vn -0.074641 0.000000 -0.066549
vn -0.074641 0.000000 -0.066549
vn -0.074641 0.000000 -0.066549
vn -0.074641 0.000000 -0.066549
vn -0.097135 0.000000 -0.023765
vn -0.097135 0.000000 -0.023765
vn -0.097135 0.000000 -0.023765
vn -0.097135 0.000000 -0.023765
vn -0.030140 0.000000 -0.095350
vn -0.030140 0.000000 -0.095350
vn -0.030140 0.000000 -0.095350
vn -0.030140 0.000000 -0.095350
vn -0.098188 0.000000 -0.018948
vn -0.098188 0.000000 -0.018948
vn -0.098188 0.000000 -0.018948
vn -0.098188 0.000000 -0.018948
vn -0.074641 0.000000 -0.066549
vn -0.074641 0.000000 -0.066549
vn -0.074641 0.000000 -0.066549
vn -0.074641 0.000000 -0.066549
vn 0.077934 0.000000 -0.062661
vn 0.077934 0.000000 -0.062661
vn 0.077934 0.000000 -0.062661
vn 0.077934 0.000000 -0.062661
vn 0.060072 0.000000 -0.079946
vn 0.060072 0.000000 -0.079946
vn 0.060072 0.000000 -0.079946
vn 0.060072 0.000000 -0.079946
vn 0.099558 0.000000 -0.009391
vn 0.099558 0.000000 -0.009391
vn 0.099558 0.000000 -0.009391
vn 0.099558 0.000000 -0.009391
vn 0.083792 0.000000 -0.054579
vn 0.083792 0.000000 -0.054579
vn 0.083792 0.000000 -0.054579
vn 0.083792 0.000000 -0.054579
vn 0.083956 0.000000 0.054326
vn 0.067035 0.000000 0.074204
vn 0.045545 0.000000 0.089026
vn 0.020952 0.000000 0.097780
vn 0.020952 0.000000 0.097780
vn 0.045545 0.000000 0.089026
vn 0.067035 0.000000 0.074204
vn 0.083956 0.000000 0.054326
vn 0.083956 0.000000 0.054326
vn 0.083956 0.000000 0.054326
vn 0.083956 0.000000 0.054326
vn 0.083956 0.000000 0.054326
vn 0.085894 0.000000 -0.051207
vn 0.098609 0.000000 -0.016618
vn 0.097933 0.000000 0.020227
vn 0.083956 0.000000 0.054326
vn 0.083956 0.000000 0.054326
vn 0.097933 0.000000 0.020227
vn 0.098609 0.000000 -0.016618
vn 0.085894 0.000000 -0.051207
vn 0.085894 0.000000 -0.051207
vn 0.085894 0.000000 -0.051207
vn 0.085894 0.000000 -0.051207
vn 0.085894 0.000000 -0.051207
vn 0.089937 0.000000 0.043719
vn 0.099251 0.000000 0.012215
vn 0.097853 0.000000 -0.020608
vn 0.085894 0.000000 -0.051207
vn 0.085894 0.000000 -0.051207
vn 0.097853 0.000000 -0.020608
vn 0.099251 0.000000 0.012215
vn 0.089937 0.000000 0.043719
vn 0.089937 0.000000 0.043719
vn 0.089937 0.000000 0.043719
vn 0.089937 0.000000 0.043719
vn 0.089937 0.000000 0.043719
vn -0.018298 0.000000 0.098312
vn -0.018298 0.000000 0.098312
vn -0.018298 0.000000 0.098312
vn -0.018298 0.000000 0.098312
vn -0.054326 0.000000 0.083956
vn -0.054326 0.000000 0.083956
vn -0.054326 0.000000 0.083956
vn -0.054326 0.000000 0.083956
vn -0.060072 0.000000 0.079946
vn -0.060072 0.000000 0.079946
vn -0.060072 0.000000 0.079946
vn -0.060072 0.000000 0.079946
vn -0.100000 0.000000 0.000000
vn -0.100000 0.000000 0.000000
vn -0.100000 0.000000 0.000000
vn -0.100000 0.000000 0.000000
vn -0.085894 0.000000 0.051207
vn -0.085894 0.000000 0.051207
vn -0.085894 0.000000 0.051207
vn -0.085894 0.000000 0.051207
vn 0.000000 0.000000 0.100000
vn 0.000000 0.000000 0.100000
vn 0.000000 0.000000 0.100000
vn 0.000000 0.000000 0.100000
vn -0.100000 0.000000 0.000000
vn -0.100000 0.000000 0.000000
vn -0.100000 0.000000 0.000000
vn -0.100000 0.000000 0.000000
vn 0.000000 0.100000 0.000000
vn 0.000000 0.100000 0.000000
vn 0.000000 0.100000 0.000000
vn 0.000000 0.100000 0.000000
vn 0.000000 0.100000 0.000000
vn 0.000000 0.100000 0.000000
vn 0.000000 0.100000 0.000000
vn 0.000000 0.100000 0.000000
vn 0.000000 0.100000 0.000000
vn 0.000000 0.100000 0.000000
vn 0.000000 0.100000 0.000000
vn 0.000000 0.100000 0.000000
vn 0.000000 0.100000 0.000000
vn 0.000000 0.100000 0.000000
vn 0.000000 0.100000 0.000000
vn 0.000000 0.100000 0.000000
vn 0.000000 0.100000 0.000000
vn 0.000000 0.100000 0.000000
vn 0.000000 0.100000 0.000000
vn 0.000000 0.100000 0.000000
vn 0.000000 0.100000 0.000000
vn 0.000000 0.100000 0.000000
vn 0.000000 0.100000 0.000000
vn 0.000000 0.100000 0.000000
vn 0.000000 0.100000 0.000000
vn 0.000000 0.100000 0.000000
vn 0.000000 0.100000 0.000000
vn 0.000000 0.100000 0.000000
vn 0.000000 0.100000 0.000000
vn 0.000000 0.100000 0.000000
vn 0.000000 -0.100000 0.000000
vn 0.000000 -0.100000 0.000000
vn 0.000000 -0.100000 0.000000
vn 0.000000 -0.100000 0.000000
vn 0.000000 -0.100000 0.000000
vn 0.000000 -0.100000 0.000000
vn 0.000000 -0.100000 0.000000
vn 0.000000 -0.100000 0.000000
vn 0.000000 -0.100000 0.000000
vn 0.000000 -0.100000 0.000000
vn 0.000000 -0.100000 0.000000
vn 0.000000 -0.100000 0.000000
vn 0.000000 -0.100000 0.000000
vn 0.000000 -0.100000 0.000000
vn 0.000000 -0.100000 0.000000
vn 0.000000 -0.100000 0.000000
vn 0.000000 -0.100000 0.000000
vn 0.000000 -0.100000 0.000000
vn 0.000000 -0.100000 0.000000
vn 0.000000 -0.100000 0.000000
vn 0.000000 -0.100000 0.000000
vn 0.000000 -0.100000 0.000000
vn 0.000000 -0.100000 0.000000
vn 0.000000 -0.100000 0.000000
vn 0.000000 -0.100000 0.000000
vn 0.000000 -0.100000 0.000000
vn 0.000000 -0.100000 0.000000
vn 0.000000 -0.100000 0.000000
vn 0.000000 -0.100000 0.000000
vn 0.000000 -0.100000 0.000000
usemtl 191,191,191
f 1/1/1 5/2/2 2/4/4
f 2/4/4 5/2/2 7/3/3
f 3/5/5 1/6/6 4/8/8
f 4/8/8 1/6/6 2/7/7
f 9/9/9 3/10/10 10/12/12
f 10/12/12 3/10/10 4/11/11
f 11/13/13 9/14/14 12/16/16
f 12/16/16 9/14/14 10/15/15
f 15/17/17 11/18/18 16/20/20
f 16/20/20 11/18/18 12/19/19
f 17/21/21 15/22/22 18/24/24
f 18/24/24 15/22/22 16/23/23
f 23/25/25 17/26/26 24/28/28
f 24/28/28 17/26/26 18/27/27
f 27/29/29 23/30/30 28/32/32
f 28/32/32 23/30/30 24/31/31
f 31/33/33 27/34/34 32/36/36
f 32/36/36 27/34/34 28/35/35
f 33/37/37 31/38/38 34/40/40
f 34/40/40 31/38/38 32/39/39
f 53/41/41 33/42/42 54/44/44
f 54/44/44 33/42/42 34/43/43
f 46/52/52 45/45/45 48/51/51
f 48/51/51 45/45/45 47/46/46
f 48/51/51 47/46/46 49/47/47
f 53/48/48 54/49/49 49/47/47
f 49/47/47 54/49/49 50/50/50
f 49/47/47 50/50/50 48/51/51
f 43/53/53 45/54/54 44/56/56
f 44/56/56 45/54/54 46/55/55
f 42/64/64 41/57/57 38/63/63
f 38/63/63 41/57/57 37/58/58
f 38/63/63 37/58/58 39/59/59
f 43/60/60 44/61/61 39/59/59
f 39/59/59 44/61/61 40/62/62
f 39/59/59 40/62/62 38/63/63
f 51/65/65 41/66/66 52/68/68
f 52/68/68 41/66/66 42/67/67
f 56/76/76 55/69/69 60/75/75
f 60/75/75 55/69/69 59/70/70
f 60/75/75 59/70/70 57/71/71
f 51/72/72 52/73/73 57/71/71
f 57/71/71 52/73/73 58/74/74
f 57/71/71 58/74/74 60/75/75
f 35/77/77 55/78/78 36/80/80
f 36/80/80 55/78/78 56/79/79
f 29/81/81 35/82/82 30/84/84
f 30/84/84 35/82/82 36/83/83
f 25/85/85 29/86/86 26/88/88
f 26/88/88 29/86/86 30/87/87
f 20/89/89 25/90/90 22/92/92
f 22/92/92 25/90/90 26/91/91
f 19/93/93 20/94/94 21/96/96
f 21/96/96 20/94/94 22/95/95
f 13/97/97 19/98/98 14/100/100
f 14/100/100 19/98/98 21/99/99
f 6/101/101 13/102/102 8/104/104
f 8/104/104 13/102/102 14/103/103
f 5/105/105 6/106/106 7/108/108
f 7/108/108 6/106/106 8/107/107
f 8/110/110 14/111/111 7/109/109
f 7/109/109 14/111/111 10/136/136
f 7/109/109 10/136/136 4/137/137
f 21/112/112 28/131/131 14/111/111
f 14/111/111 28/131/131 16/134/134
f 14/111/111 16/134/134 10/136/136
f 10/136/136 16/134/134 12/135/135
f 22/113/113 26/114/114 21/112/112
f 21/112/112 26/114/114 34/129/129
f 21/112/112 34/129/129 32/130/130
f 26/114/114 30/115/115 34/129/129
f 34/129/129 30/115/115 38/122/122
f 34/129/129 38/122/122 40/123/123
f 30/115/115 36/116/116 38/122/122
f 38/122/122 36/116/116 42/121/121
f 42/121/121 36/116/116 56/117/117
f 42/121/121 56/117/117 52/120/120
f 52/120/120 56/117/117 58/119/119
f 58/119/119 56/117/117 60/118/118
f 40/123/123 44/124/124 34/129/129
f 34/129/129 44/124/124 46/125/125
f 34/129/129 46/125/125 48/126/126
f 48/126/126 50/127/127 34/129/129
f 34/129/129 50/127/127 54/128/128
f 32/130/130 28/131/131 21/112/112
f 24/132/132 18/133/133 28/131/131
f 28/131/131 18/133/133 16/134/134
f 4/137/137 2/138/138 7/109/109
f 6/139/139 5/140/140 13/168/168
f 13/168/168 5/140/140 9/143/143
f 13/168/168 9/143/143 15/145/145
f 15/145/145 9/143/143 11/144/144
f 1/141/141 3/142/142 5/140/140
f 5/140/140 3/142/142 9/143/143
f 13/168/168 15/145/145 27/148/148
f 27/148/148 15/145/145 17/146/146
f 27/148/148 17/146/146 23/147/147
f 13/168/168 27/148/148 19/167/167
f 19/167/167 27/148/148 31/149/149
f 19/167/167 31/149/149 33/150/150
f 53/151/151 49/152/152 33/150/150
f 33/150/150 49/152/152 47/153/153
f 33/150/150 47/153/153 45/154/154
f 45/154/154 43/155/155 33/150/150
f 33/150/150 43/155/155 39/156/156
f 33/150/150 39/156/156 37/157/157
f 41/158/158 35/163/163 37/157/157
f 37/157/157 35/163/163 29/164/164
f 37/157/157 29/164/164 33/150/150
f 33/150/150 29/164/164 25/165/165
f 33/150/150 25/165/165 19/167/167
f 19/167/167 25/165/165 20/166/166
f 35/163/163 41/158/158 55/162/162
f 55/162/162 41/158/158 51/159/159
f 55/162/162 51/159/159 57/160/160
f 57/160/160 59/161/161 55/162/162
# 60 vertices
# 168 texture params
# 168 normals
# 116 facets

# 1 groups
